<mxfile host="app.diagrams.net" modified="2023-06-22T19:43:59.369Z" agent="Mozilla/5.0 (Windows NT 10.0; Win64; x64) AppleWebKit/537.36 (KHTML, like Gecko) Chrome/114.0.0.0 Safari/537.36" etag="EBgZSUHDGGa8Cfu7Vavm" version="21.5.0" type="github">
  <diagram id="prtHgNgQTEPvFCAcTncT" name="Page-1">
    <mxGraphModel dx="1466" dy="1730" grid="1" gridSize="10" guides="1" tooltips="1" connect="1" arrows="1" fold="1" page="1" pageScale="1" pageWidth="827" pageHeight="1169" math="0" shadow="0">
      <root>
        <mxCell id="0" />
        <mxCell id="1" parent="0" />
        <mxCell id="BIxajrNQtzE2W2WU_80a-7" style="edgeStyle=orthogonalEdgeStyle;rounded=0;orthogonalLoop=1;jettySize=auto;html=1;exitX=1;exitY=0;exitDx=0;exitDy=0;" edge="1" parent="1" source="BIxajrNQtzE2W2WU_80a-1">
          <mxGeometry relative="1" as="geometry">
            <mxPoint x="462" y="212" as="targetPoint" />
          </mxGeometry>
        </mxCell>
        <mxCell id="BIxajrNQtzE2W2WU_80a-1" value="PERFECT FOOD" style="ellipse;whiteSpace=wrap;html=1;" vertex="1" parent="1">
          <mxGeometry x="360" y="200" width="120" height="80" as="geometry" />
        </mxCell>
        <mxCell id="BIxajrNQtzE2W2WU_80a-2" value="NGƯỜI DÙNG" style="rounded=0;whiteSpace=wrap;html=1;" vertex="1" parent="1">
          <mxGeometry x="360" y="40" width="120" height="60" as="geometry" />
        </mxCell>
        <mxCell id="BIxajrNQtzE2W2WU_80a-3" value="NHÀ CUNG CẤP NGUYÊN LIỆU" style="rounded=0;whiteSpace=wrap;html=1;" vertex="1" parent="1">
          <mxGeometry x="200" y="360" width="120" height="60" as="geometry" />
        </mxCell>
        <mxCell id="BIxajrNQtzE2W2WU_80a-4" value="NHÓM QUẢN LÝ VÀ PHÁT TRIỂN" style="rounded=0;whiteSpace=wrap;html=1;" vertex="1" parent="1">
          <mxGeometry x="480" y="360" width="120" height="60" as="geometry" />
        </mxCell>
        <mxCell id="BIxajrNQtzE2W2WU_80a-5" value="" style="endArrow=classic;html=1;rounded=0;exitX=0.5;exitY=1;exitDx=0;exitDy=0;entryX=0.5;entryY=0;entryDx=0;entryDy=0;" edge="1" parent="1" source="BIxajrNQtzE2W2WU_80a-2" target="BIxajrNQtzE2W2WU_80a-1">
          <mxGeometry width="50" height="50" relative="1" as="geometry">
            <mxPoint x="360" y="190" as="sourcePoint" />
            <mxPoint x="410" y="140" as="targetPoint" />
          </mxGeometry>
        </mxCell>
        <mxCell id="BIxajrNQtzE2W2WU_80a-6" value="" style="endArrow=classic;html=1;rounded=0;exitX=0.5;exitY=0;exitDx=0;exitDy=0;entryX=1;entryY=0;entryDx=0;entryDy=0;" edge="1" parent="1" target="BIxajrNQtzE2W2WU_80a-1">
          <mxGeometry width="50" height="50" relative="1" as="geometry">
            <mxPoint x="414" y="40" as="sourcePoint" />
            <mxPoint x="540" y="250" as="targetPoint" />
            <Array as="points">
              <mxPoint x="414" />
              <mxPoint x="520" />
              <mxPoint x="520" y="212" />
            </Array>
          </mxGeometry>
        </mxCell>
        <mxCell id="BIxajrNQtzE2W2WU_80a-8" value="kết nối tủ lạnh thông minh" style="text;html=1;strokeColor=none;fillColor=none;align=center;verticalAlign=middle;whiteSpace=wrap;rounded=0;" vertex="1" parent="1">
          <mxGeometry x="420" y="110" width="60" height="80" as="geometry" />
        </mxCell>
        <mxCell id="BIxajrNQtzE2W2WU_80a-9" value="đặt mua nguyên liệu" style="text;html=1;strokeColor=none;fillColor=none;align=center;verticalAlign=middle;whiteSpace=wrap;rounded=0;" vertex="1" parent="1">
          <mxGeometry x="430" y="-30" width="80" height="30" as="geometry" />
        </mxCell>
        <mxCell id="BIxajrNQtzE2W2WU_80a-11" value="thông tin món ăn theo nhu cầu" style="text;html=1;strokeColor=none;fillColor=none;align=center;verticalAlign=middle;whiteSpace=wrap;rounded=0;" vertex="1" parent="1">
          <mxGeometry x="330" y="110" width="60" height="60" as="geometry" />
        </mxCell>
        <mxCell id="BIxajrNQtzE2W2WU_80a-12" value="" style="endArrow=classic;html=1;rounded=0;exitX=0;exitY=0.5;exitDx=0;exitDy=0;entryX=0;entryY=0.5;entryDx=0;entryDy=0;" edge="1" parent="1" source="BIxajrNQtzE2W2WU_80a-2" target="BIxajrNQtzE2W2WU_80a-1">
          <mxGeometry width="50" height="50" relative="1" as="geometry">
            <mxPoint x="380" y="20" as="sourcePoint" />
            <mxPoint x="380" y="-50" as="targetPoint" />
            <Array as="points">
              <mxPoint x="300" y="70" />
              <mxPoint x="270" y="70" />
              <mxPoint x="270" y="240" />
            </Array>
          </mxGeometry>
        </mxCell>
        <mxCell id="BIxajrNQtzE2W2WU_80a-13" value="đăng nhập" style="text;html=1;strokeColor=none;fillColor=none;align=center;verticalAlign=middle;whiteSpace=wrap;rounded=0;" vertex="1" parent="1">
          <mxGeometry x="290" y="240" width="60" height="30" as="geometry" />
        </mxCell>
        <mxCell id="BIxajrNQtzE2W2WU_80a-14" value="" style="endArrow=classic;html=1;rounded=0;exitX=0;exitY=0.5;exitDx=0;exitDy=0;entryX=0.25;entryY=0;entryDx=0;entryDy=0;" edge="1" parent="1" source="BIxajrNQtzE2W2WU_80a-3" target="BIxajrNQtzE2W2WU_80a-2">
          <mxGeometry width="50" height="50" relative="1" as="geometry">
            <mxPoint x="120" y="370" as="sourcePoint" />
            <mxPoint x="220" y="-180" as="targetPoint" />
            <Array as="points">
              <mxPoint x="160" y="390" />
              <mxPoint x="160" />
              <mxPoint x="390" />
            </Array>
          </mxGeometry>
        </mxCell>
        <mxCell id="BIxajrNQtzE2W2WU_80a-16" value="" style="endArrow=classic;html=1;rounded=0;entryX=0.25;entryY=1;entryDx=0;entryDy=0;exitX=0;exitY=0;exitDx=0;exitDy=0;" edge="1" parent="1" source="BIxajrNQtzE2W2WU_80a-1" target="BIxajrNQtzE2W2WU_80a-2">
          <mxGeometry width="50" height="50" relative="1" as="geometry">
            <mxPoint x="320" y="190" as="sourcePoint" />
            <mxPoint x="360" y="140" as="targetPoint" />
            <Array as="points">
              <mxPoint x="378" y="180" />
              <mxPoint x="390" y="180" />
            </Array>
          </mxGeometry>
        </mxCell>
        <mxCell id="BIxajrNQtzE2W2WU_80a-17" value="vận chuyên nguyên liệu" style="text;html=1;strokeColor=none;fillColor=none;align=center;verticalAlign=middle;whiteSpace=wrap;rounded=0;" vertex="1" parent="1">
          <mxGeometry x="210" width="140" height="30" as="geometry" />
        </mxCell>
        <mxCell id="BIxajrNQtzE2W2WU_80a-18" value="" style="endArrow=classic;startArrow=classic;html=1;rounded=0;exitX=0.5;exitY=0;exitDx=0;exitDy=0;entryX=0.5;entryY=1;entryDx=0;entryDy=0;" edge="1" parent="1" source="BIxajrNQtzE2W2WU_80a-3" target="BIxajrNQtzE2W2WU_80a-1">
          <mxGeometry width="50" height="50" relative="1" as="geometry">
            <mxPoint x="340" y="360" as="sourcePoint" />
            <mxPoint x="390" y="310" as="targetPoint" />
            <Array as="points">
              <mxPoint x="260" y="320" />
              <mxPoint x="420" y="320" />
            </Array>
          </mxGeometry>
        </mxCell>
        <mxCell id="BIxajrNQtzE2W2WU_80a-19" value="chính sách ưu đãi" style="text;html=1;strokeColor=none;fillColor=none;align=center;verticalAlign=middle;whiteSpace=wrap;rounded=0;" vertex="1" parent="1">
          <mxGeometry x="350" y="290" width="70" height="30" as="geometry" />
        </mxCell>
        <mxCell id="BIxajrNQtzE2W2WU_80a-20" value="thông tin người dùng" style="text;html=1;strokeColor=none;fillColor=none;align=center;verticalAlign=middle;whiteSpace=wrap;rounded=0;" vertex="1" parent="1">
          <mxGeometry x="260" y="330" width="110" height="30" as="geometry" />
        </mxCell>
        <mxCell id="BIxajrNQtzE2W2WU_80a-21" value="" style="endArrow=classic;startArrow=classic;html=1;rounded=0;exitX=1;exitY=1;exitDx=0;exitDy=0;entryX=0.5;entryY=0;entryDx=0;entryDy=0;" edge="1" parent="1" source="BIxajrNQtzE2W2WU_80a-1" target="BIxajrNQtzE2W2WU_80a-4">
          <mxGeometry width="50" height="50" relative="1" as="geometry">
            <mxPoint x="580" y="330" as="sourcePoint" />
            <mxPoint x="630" y="280" as="targetPoint" />
            <Array as="points">
              <mxPoint x="540" y="268" />
            </Array>
          </mxGeometry>
        </mxCell>
        <mxCell id="BIxajrNQtzE2W2WU_80a-22" value="bảo trì và cập nhật hệ thống" style="text;html=1;strokeColor=none;fillColor=none;align=center;verticalAlign=middle;whiteSpace=wrap;rounded=0;" vertex="1" parent="1">
          <mxGeometry x="470" y="240" width="100" height="30" as="geometry" />
        </mxCell>
        <mxCell id="BIxajrNQtzE2W2WU_80a-23" value="thông tin lỗi và cập nhật" style="text;html=1;strokeColor=none;fillColor=none;align=center;verticalAlign=middle;whiteSpace=wrap;rounded=0;" vertex="1" parent="1">
          <mxGeometry x="540" y="330" width="90" height="30" as="geometry" />
        </mxCell>
      </root>
    </mxGraphModel>
  </diagram>
</mxfile>
